<svg xmlns="http://www.w3.org/2000/svg" viewBox="0 0 96 96" role="img" aria-label="联系客服">
  <defs>
    <radialGradient id="goldGlow" cx="34%" cy="24%" r="70%">
      <stop offset="0%" stop-color="#ffe1bd"/>
      <stop offset="42%" stop-color="#efaa68"/>
      <stop offset="78%" stop-color="#c7793d"/>
      <stop offset="100%" stop-color="#8d4d25"/>
    </radialGradient>
    <linearGradient id="darkPad" x1="0" x2="0" y1="0" y2="1">
      <stop offset="0%" stop-color="#2d2d2d"/>
      <stop offset="100%" stop-color="#111111"/>
    </linearGradient>
    <filter id="softShadow" x="-30%" y="-30%" width="160%" height="160%">
      <feDropShadow dx="0" dy="7" stdDeviation="7" flood-color="#000000" flood-opacity="0.32"/>
    </filter>
  </defs>
  <circle cx="48" cy="48" r="43" fill="url(#goldGlow)" filter="url(#softShadow)"/>
  <path d="M26 52v-7c0-12.5 9.8-22.5 22-22.5s22 10 22 22.5v7" fill="none" stroke="#412917" stroke-width="7" stroke-linecap="round"/>
  <rect x="19" y="43" width="14" height="25" rx="4" fill="url(#darkPad)"/>
  <rect x="63" y="43" width="14" height="25" rx="4" fill="url(#darkPad)"/>
  <path d="M33.5 55c2.8 8.2 8.3 12 14.5 12 6.1 0 11.6-3.8 14.5-12" fill="none" stroke="#111111" stroke-width="6" stroke-linecap="round"/>
  <circle cx="48" cy="54" r="4.2" fill="#111111"/>
  <path d="M66 64c-3.3 5.4-9.6 9.1-18 9.1" fill="none" stroke="#412917" stroke-width="4" stroke-linecap="round"/>
</svg>
